<svg width="161" height="23" viewBox="0 0 161 23" fill="none" xmlns="http://www.w3.org/2000/svg">
<path d="M0.420044 22.3053L5.00293 2.22231H13.4798C15.5166 2.22231 17.1241 2.72946 18.3023 3.74375C19.5004 4.73776 20.0995 6.13748 20.0995 7.94292C20.0995 9.4035 19.76 10.6409 19.0811 11.6552C18.4221 12.6695 17.5235 13.4607 16.3852 14.0287C15.247 14.5764 13.959 14.8807 12.5212 14.9415L11.383 15.2154H6.65037L7.48906 11.5031H11.413C12.1918 11.5031 12.8408 11.3712 13.3599 11.1075C13.8991 10.8438 14.3085 10.4786 14.588 10.0121C14.8676 9.52521 15.0074 8.99778 15.0074 8.42978C15.0074 7.63863 14.7478 7.07063 14.2286 6.72577C13.7094 6.36062 13.0404 6.17805 12.2217 6.17805H9.16646L5.48218 22.3053H0.420044ZM13.2102 22.3053L9.9752 13.6027L14.6479 12.8724L18.4221 22.3053H13.2102Z" fill="#4B6379"/>
<path d="M28.4263 22.5792C26.9486 22.5792 25.6506 22.2952 24.5324 21.7272C23.4141 21.1389 22.5454 20.3274 21.9264 19.2929C21.3074 18.2583 20.9978 17.0513 20.9978 15.6718C20.9978 13.9678 21.3373 12.4565 22.0163 11.1379C22.7152 9.79907 23.6937 8.74421 24.9517 7.97335C26.2297 7.20249 27.7474 6.81705 29.5046 6.81705C30.9624 6.81705 32.2005 7.10106 33.2189 7.66906C34.2573 8.21678 35.046 8.99778 35.5852 10.0121C36.1244 11.0264 36.3939 12.2232 36.3939 13.6027C36.3939 13.9881 36.374 14.3938 36.334 14.8198C36.2941 15.2458 36.2142 15.6617 36.0944 16.0674H24.2927V13.268H32.7696L31.3618 14.0591C31.4416 13.7751 31.4915 13.5317 31.5115 13.3288C31.5315 13.126 31.5415 12.9332 31.5415 12.7507C31.5415 12.2232 31.4516 11.7871 31.2719 11.4422C31.0922 11.0974 30.8426 10.8438 30.5231 10.6815C30.2035 10.4989 29.8241 10.4076 29.3848 10.4076C28.6659 10.4076 28.0669 10.5801 27.5876 10.9249C27.1283 11.2698 26.7589 11.7262 26.4793 12.2942C26.1998 12.842 26.0001 13.4404 25.8803 14.0895C25.7804 14.7387 25.7305 15.3675 25.7305 15.9761C25.7305 16.6253 25.8503 17.173 26.0899 17.6193C26.3495 18.0656 26.689 18.4104 27.1084 18.6538C27.5477 18.877 28.0569 18.9886 28.636 18.9886C29.3549 18.9886 29.934 18.8263 30.3733 18.5017C30.8126 18.1568 31.1521 17.7308 31.3917 17.2237L35.5852 18.8973C35.2457 19.6681 34.7165 20.3274 33.9977 20.8751C33.2987 21.4229 32.47 21.8489 31.5115 22.1532C30.573 22.4372 29.5446 22.5792 28.4263 22.5792Z" fill="#4B6379"/>
<path d="M43.4952 22.5792C42.4968 22.5792 41.5982 22.3459 40.7994 21.8793C40.0206 21.3924 39.4016 20.7027 38.9423 19.8101C38.503 18.8973 38.2833 17.7816 38.2833 16.463C38.2833 15.2458 38.4531 14.0591 38.7926 12.9028C39.132 11.7465 39.6213 10.7119 40.2603 9.79907C40.9192 8.86593 41.698 8.13563 42.5966 7.6082C43.5152 7.06048 44.5436 6.78663 45.6819 6.78663C46.3408 6.78663 46.9699 6.90834 47.5689 7.15177C48.188 7.3952 48.7072 7.77049 49.1265 8.27763C49.5658 8.78478 49.8654 9.45421 50.0251 10.2859L50.744 7.09091H55.8361L52.3615 22.3053H47.7486L48.2579 19.445C47.7786 20.4187 47.1196 21.1896 46.2809 21.7576C45.4422 22.3053 44.5137 22.5792 43.4952 22.5792ZM45.7118 18.806C46.211 18.806 46.6703 18.6437 47.0897 18.3191C47.509 17.9946 47.8685 17.5686 48.168 17.0411C48.4875 16.4934 48.7271 15.9051 48.8869 15.2763C49.0666 14.6271 49.1565 13.9881 49.1565 13.3592C49.1565 12.7912 49.0566 12.3044 48.8569 11.8987C48.6772 11.4727 48.4176 11.1481 48.0781 10.9249C47.7387 10.7018 47.3293 10.5902 46.85 10.5902C46.2909 10.5902 45.7917 10.7627 45.3524 11.1075C44.913 11.4321 44.5436 11.8581 44.2441 12.3855C43.9446 12.913 43.7149 13.4911 43.5552 14.12C43.3954 14.7285 43.3155 15.3168 43.3155 15.8848C43.3155 16.4934 43.4054 17.0208 43.5851 17.4671C43.7648 17.8931 44.0244 18.2278 44.3639 18.4713C44.7233 18.6944 45.1726 18.806 45.7118 18.806Z" fill="#4B6379"/>
<path d="M61.3225 22.5792C59.5253 22.5792 58.2572 22.0822 57.5184 21.0881C56.7995 20.0739 56.6398 18.7248 57.0391 17.0411L60.7833 0.640015H65.8754L62.1612 16.9803C61.9815 17.6497 62.0114 18.1568 62.251 18.5017C62.4907 18.8263 62.93 18.9886 63.569 18.9886C63.8086 18.9886 64.0183 18.9784 64.198 18.9581C64.3777 18.9378 64.5275 18.9074 64.6473 18.8668L63.7487 22.214C63.4292 22.356 63.0798 22.4473 62.7003 22.4879C62.3209 22.5487 61.8616 22.5792 61.3225 22.5792Z" fill="#4B6379"/>
<path d="M74.0293 22.5792C72.5516 22.5792 71.2536 22.2952 70.1354 21.7272C69.0171 21.1389 68.1484 20.3274 67.5294 19.2929C66.9104 18.2583 66.6008 17.0513 66.6008 15.6718C66.6008 13.9678 66.9403 12.4565 67.6193 11.1379C68.3182 9.79907 69.2967 8.74421 70.5547 7.97335C71.8327 7.20249 73.3504 6.81705 75.1076 6.81705C76.5654 6.81705 77.8034 7.10106 78.8219 7.66906C79.8602 8.21678 80.649 8.99778 81.1882 10.0121C81.7273 11.0264 81.9969 12.2232 81.9969 13.6027C81.9969 13.9881 81.977 14.3938 81.937 14.8198C81.8971 15.2458 81.8172 15.6617 81.6974 16.0674H69.8957V13.268H78.3726L76.9647 14.0591C77.0446 13.7751 77.0945 13.5317 77.1145 13.3288C77.1345 13.126 77.1445 12.9332 77.1445 12.7507C77.1445 12.2232 77.0546 11.7871 76.8749 11.4422C76.6952 11.0974 76.4455 10.8438 76.126 10.6815C75.8065 10.4989 75.4271 10.4076 74.9878 10.4076C74.2689 10.4076 73.6699 10.5801 73.1906 10.9249C72.7313 11.2698 72.3619 11.7262 72.0823 12.2942C71.8028 12.842 71.6031 13.4404 71.4833 14.0895C71.3834 14.7387 71.3335 15.3675 71.3335 15.9761C71.3335 16.6253 71.4533 17.173 71.6929 17.6193C71.9525 18.0656 72.292 18.4104 72.7114 18.6538C73.1507 18.877 73.6599 18.9886 74.239 18.9886C74.9579 18.9886 75.537 18.8263 75.9763 18.5017C76.4156 18.1568 76.7551 17.7308 76.9947 17.2237L81.1882 18.8973C80.8487 19.6681 80.3195 20.3274 79.6007 20.8751C78.9017 21.4229 78.073 21.8489 77.1145 22.1532C76.176 22.4372 75.1476 22.5792 74.0293 22.5792Z" fill="#4B6379"/>
<path d="M90.6245 22.64C89.5661 22.64 88.5277 22.4879 87.5093 22.1836C86.4909 21.8793 85.5723 21.4431 84.7536 20.8751C83.9548 20.2869 83.2959 19.5971 82.7767 18.806L85.4425 16.3413C85.9617 17.173 86.6407 17.8526 87.4794 18.38C88.318 18.8871 89.2067 19.1407 90.1452 19.1407C90.7642 19.1407 91.2435 19.0494 91.583 18.8668C91.9225 18.6843 92.0922 18.4003 92.0922 18.0148C92.0922 17.7308 91.9824 17.4874 91.7627 17.2846C91.563 17.0817 91.2535 16.9194 90.8341 16.7977L89.0369 16.25C87.5393 15.7631 86.4609 15.1647 85.802 14.4547C85.163 13.7244 84.8434 12.8318 84.8434 11.7769C84.8434 10.7424 85.113 9.85993 85.6522 9.12964C86.1914 8.37906 86.9502 7.80092 87.9287 7.3952C88.9071 6.98948 90.0354 6.78663 91.3134 6.78663C92.8909 6.78663 94.2788 7.06048 95.4769 7.6082C96.6751 8.15592 97.6236 8.92678 98.3225 9.92079L95.7765 12.4768C95.5169 12.0508 95.1574 11.6755 94.6981 11.3509C94.2588 11.0061 93.7696 10.7424 93.2304 10.5598C92.6913 10.3569 92.1221 10.2555 91.5231 10.2555C90.904 10.2555 90.4348 10.3569 90.1153 10.5598C89.7958 10.7424 89.636 11.0061 89.636 11.3509C89.636 11.6552 89.7758 11.8987 90.0554 12.0812C90.3349 12.2435 90.6544 12.3855 91.0139 12.5072L93.8594 13.3897C94.9178 13.7345 95.7265 14.2518 96.2857 14.9415C96.8648 15.611 97.1543 16.4224 97.1543 17.3758C97.1543 18.451 96.8947 19.3841 96.3755 20.1753C95.8563 20.9664 95.1075 21.575 94.129 22.001C93.1505 22.427 91.9824 22.64 90.6245 22.64Z" fill="#4B6379"/>
<path d="M106.275 22.5792C105.037 22.5792 103.989 22.3662 103.13 21.9402C102.272 21.4939 101.673 20.8346 101.333 19.9623C100.994 19.09 100.964 18.0148 101.243 16.7368L104.149 3.80461L109.6 2.34403L106.335 16.6151C106.136 17.4063 106.225 18.0047 106.605 18.4104C107.004 18.7958 107.583 18.9886 108.342 18.9886C108.801 18.9886 109.171 18.948 109.45 18.8668C109.75 18.7857 110.01 18.6843 110.229 18.5626L109.93 21.8793C109.391 22.143 108.811 22.3256 108.192 22.427C107.573 22.5284 106.934 22.5792 106.275 22.5792ZM99.8054 10.7728L100.644 7.09091H112.596L111.757 10.7728H99.8054Z" fill="#4B6379"/>
<path d="M118.145 22.5792C117.146 22.5792 116.248 22.3459 115.449 21.8793C114.67 21.3924 114.051 20.7027 113.592 19.8101C113.153 18.8973 112.933 17.7816 112.933 16.463C112.933 15.2458 113.103 14.0591 113.442 12.9028C113.782 11.7465 114.271 10.7119 114.91 9.79907C115.569 8.86593 116.348 8.13563 117.246 7.6082C118.165 7.06048 119.193 6.78663 120.332 6.78663C120.991 6.78663 121.62 6.90834 122.219 7.15177C122.838 7.3952 123.357 7.77049 123.776 8.27763C124.215 8.78478 124.515 9.45421 124.675 10.2859L125.394 7.09091H130.486L127.011 22.3053H122.398L122.908 19.445C122.428 20.4187 121.769 21.1896 120.931 21.7576C120.092 22.3053 119.163 22.5792 118.145 22.5792ZM120.361 18.806C120.861 18.806 121.32 18.6437 121.739 18.3191C122.159 17.9946 122.518 17.5686 122.818 17.0411C123.137 16.4934 123.377 15.9051 123.537 15.2763C123.716 14.6271 123.806 13.9881 123.806 13.3592C123.806 12.7912 123.706 12.3044 123.507 11.8987C123.327 11.4727 123.067 11.1481 122.728 10.9249C122.388 10.7018 121.979 10.5902 121.5 10.5902C120.941 10.5902 120.441 10.7627 120.002 11.1075C119.563 11.4321 119.193 11.8581 118.894 12.3855C118.594 12.913 118.365 13.4911 118.205 14.12C118.045 14.7285 117.965 15.3168 117.965 15.8848C117.965 16.4934 118.055 17.0208 118.235 17.4671C118.415 17.8931 118.674 18.2278 119.014 18.4713C119.373 18.6944 119.822 18.806 120.361 18.806Z" fill="#4B6379"/>
<path d="M138.276 22.5792C137.038 22.5792 135.99 22.3662 135.131 21.9402C134.273 21.4939 133.674 20.8346 133.334 19.9623C132.995 19.09 132.965 18.0148 133.244 16.7368L136.15 3.80461L141.601 2.34403L138.336 16.6151C138.137 17.4063 138.227 18.0047 138.606 18.4104C139.005 18.7958 139.584 18.9886 140.343 18.9886C140.803 18.9886 141.172 18.948 141.452 18.8668C141.751 18.7857 142.011 18.6843 142.23 18.5626L141.931 21.8793C141.392 22.143 140.813 22.3256 140.193 22.427C139.574 22.5284 138.935 22.5792 138.276 22.5792ZM131.807 10.7728L132.645 7.09091H144.597L143.758 10.7728H131.807Z" fill="#4B6379"/>
<path d="M152.452 22.5792C150.975 22.5792 149.677 22.2952 148.558 21.7272C147.44 21.1389 146.572 20.3274 145.953 19.2929C145.333 18.2583 145.024 17.0513 145.024 15.6718C145.024 13.9678 145.363 12.4565 146.042 11.1379C146.741 9.79907 147.72 8.74421 148.978 7.97335C150.256 7.20249 151.773 6.81705 153.531 6.81705C154.988 6.81705 156.227 7.10106 157.245 7.66906C158.283 8.21678 159.072 8.99778 159.611 10.0121C160.15 11.0264 160.42 12.2232 160.42 13.6027C160.42 13.9881 160.4 14.3938 160.36 14.8198C160.32 15.2458 160.24 15.6617 160.121 16.0674H148.319V13.268H156.796L155.388 14.0591C155.468 13.7751 155.518 13.5317 155.538 13.3288C155.558 13.126 155.568 12.9332 155.568 12.7507C155.568 12.2232 155.478 11.7871 155.298 11.4422C155.118 11.0974 154.869 10.8438 154.549 10.6815C154.23 10.4989 153.85 10.4076 153.411 10.4076C152.692 10.4076 152.093 10.5801 151.614 10.9249C151.154 11.2698 150.785 11.7262 150.505 12.2942C150.226 12.842 150.026 13.4404 149.906 14.0895C149.807 14.7387 149.757 15.3675 149.757 15.9761C149.757 16.6253 149.876 17.173 150.116 17.6193C150.376 18.0656 150.715 18.4104 151.134 18.6538C151.574 18.877 152.083 18.9886 152.662 18.9886C153.381 18.9886 153.96 18.8263 154.399 18.5017C154.839 18.1568 155.178 17.7308 155.418 17.2237L159.611 18.8973C159.272 19.6681 158.743 20.3274 158.024 20.8751C157.325 21.4229 156.496 21.8489 155.538 22.1532C154.599 22.4372 153.571 22.5792 152.452 22.5792Z" fill="#4B6379"/>
</svg>
